<svg width="325" height="73" viewBox="0 0 325 73" fill="none" xmlns="http://www.w3.org/2000/svg">
<path d="M36.3859 2.28125C21.4438 2.28125 8.78282 11.8625 4.10626 25.0938H68.6656C63.9891 11.8625 51.3281 2.28125 36.3859 2.28125Z" fill="#3E4347"/>
<path d="M36.3859 70.7188C51.3281 70.7188 63.9891 61.2516 68.6656 47.9062H4.10626C8.78282 61.2516 21.4438 70.7188 36.3859 70.7188V70.7188Z" fill="#FFE62E"/>
<path d="M4.10624 25.0938C2.85155 28.6297 2.16718 32.5078 2.16718 36.5C2.16718 40.4922 2.85155 44.3703 4.10624 47.9062H68.6656C69.9203 44.3703 70.6047 40.4922 70.6047 36.5C70.6047 32.5078 69.9203 28.6297 68.6656 25.0938H4.10624Z" fill="#ED4C5C"/>
<circle cx="36.5" cy="36.5" r="34" stroke="#363636"/>
<path d="M295.565 23.2789C295.285 22.6372 294.883 22.0558 294.379 21.5671C293.875 21.0769 293.281 20.6874 292.629 20.4197C291.953 20.141 291.227 19.9983 290.495 20C289.468 20 288.466 20.2791 287.595 20.8063C287.386 20.9324 287.189 21.0709 287.001 21.2218C286.814 21.0709 286.616 20.9324 286.407 20.8063C285.536 20.2791 284.534 20 283.507 20C282.767 20 282.05 20.1406 281.373 20.4197C280.719 20.6885 280.129 21.0751 279.623 21.5671C279.119 22.0552 278.716 22.6368 278.438 23.2789C278.148 23.9466 278 24.6558 278 25.3855C278 26.074 278.142 26.7914 278.423 27.5211C278.658 28.131 278.996 28.7636 279.427 29.4025C280.111 30.4134 281.05 31.4678 282.217 32.5366C284.151 34.3084 286.066 35.5323 286.147 35.5819L286.641 35.8961C286.859 36.0346 287.141 36.0346 287.359 35.8961L287.853 35.5819C287.934 35.5302 289.847 34.3084 291.783 32.5366C292.95 31.4678 293.889 30.4134 294.573 29.4025C295.004 28.7636 295.344 28.131 295.577 27.5211C295.858 26.7914 296 26.074 296 25.3855C296.002 24.6558 295.854 23.9466 295.565 23.2789Z" fill="#FF0000"/>
<path d="M90.491 47.965V57H89.009V50.812L86.253 57H85.226L82.457 50.812V57H80.975V47.965H82.574L85.746 55.05L88.905 47.965H90.491ZM91.9449 53.386C91.9449 52.6667 92.0922 52.0297 92.3869 51.475C92.6902 50.9203 93.0975 50.4913 93.6089 50.188C94.1289 49.876 94.7009 49.72 95.3249 49.72C95.8882 49.72 96.3779 49.8327 96.7939 50.058C97.2185 50.2747 97.5565 50.5477 97.8079 50.877V49.837H99.3029V57H97.8079V55.934C97.5565 56.272 97.2142 56.5537 96.7809 56.779C96.3475 57.0043 95.8535 57.117 95.2989 57.117C94.6835 57.117 94.1202 56.961 93.6089 56.649C93.0975 56.3283 92.6902 55.8863 92.3869 55.323C92.0922 54.751 91.9449 54.1053 91.9449 53.386ZM97.8079 53.412C97.8079 52.918 97.7039 52.489 97.4959 52.125C97.2965 51.761 97.0322 51.4837 96.7029 51.293C96.3735 51.1023 96.0182 51.007 95.6369 51.007C95.2555 51.007 94.9002 51.1023 94.5709 51.293C94.2415 51.475 93.9729 51.748 93.7649 52.112C93.5655 52.4673 93.4659 52.892 93.4659 53.386C93.4659 53.88 93.5655 54.3133 93.7649 54.686C93.9729 55.0587 94.2415 55.3447 94.5709 55.544C94.9089 55.7347 95.2642 55.83 95.6369 55.83C96.0182 55.83 96.3735 55.7347 96.7029 55.544C97.0322 55.3533 97.2965 55.076 97.4959 54.712C97.7039 54.3393 97.8079 53.906 97.8079 53.412ZM104.083 53.425L107.385 57H105.383L102.731 53.919V57H101.249V47.38H102.731V52.97L105.331 49.837H107.385L104.083 53.425ZM115.013 53.243C115.013 53.5117 114.995 53.7543 114.961 53.971H109.488C109.531 54.543 109.743 55.0023 110.125 55.349C110.506 55.6957 110.974 55.869 111.529 55.869C112.326 55.869 112.889 55.5353 113.219 54.868H114.818C114.601 55.5267 114.207 56.0683 113.635 56.493C113.071 56.909 112.369 57.117 111.529 57.117C110.844 57.117 110.229 56.9653 109.683 56.662C109.145 56.35 108.721 55.9167 108.409 55.362C108.105 54.7987 107.954 54.1487 107.954 53.412C107.954 52.6753 108.101 52.0297 108.396 51.475C108.699 50.9117 109.119 50.4783 109.657 50.175C110.203 49.8717 110.827 49.72 111.529 49.72C112.205 49.72 112.807 49.8673 113.336 50.162C113.864 50.4567 114.276 50.8727 114.571 51.41C114.865 51.9387 115.013 52.5497 115.013 53.243ZM113.466 52.775C113.457 52.229 113.262 51.7913 112.881 51.462C112.499 51.1327 112.027 50.968 111.464 50.968C110.952 50.968 110.515 51.1327 110.151 51.462C109.787 51.7827 109.57 52.2203 109.501 52.775H113.466ZM126.296 49.837L121.902 60.367H120.368L121.824 56.883L119.003 49.837H120.654L122.669 55.297L124.762 49.837H126.296ZM130.521 57.117C129.845 57.117 129.234 56.9653 128.688 56.662C128.142 56.35 127.713 55.9167 127.401 55.362C127.089 54.7987 126.933 54.1487 126.933 53.412C126.933 52.684 127.094 52.0383 127.414 51.475C127.735 50.9117 128.173 50.4783 128.727 50.175C129.282 49.8717 129.902 49.72 130.586 49.72C131.271 49.72 131.891 49.8717 132.445 50.175C133 50.4783 133.438 50.9117 133.758 51.475C134.079 52.0383 134.239 52.684 134.239 53.412C134.239 54.14 134.075 54.7857 133.745 55.349C133.416 55.9123 132.965 56.35 132.393 56.662C131.83 56.9653 131.206 57.117 130.521 57.117ZM130.521 55.83C130.903 55.83 131.258 55.739 131.587 55.557C131.925 55.375 132.198 55.102 132.406 54.738C132.614 54.374 132.718 53.932 132.718 53.412C132.718 52.892 132.619 52.4543 132.419 52.099C132.22 51.735 131.956 51.462 131.626 51.28C131.297 51.098 130.942 51.007 130.56 51.007C130.179 51.007 129.824 51.098 129.494 51.28C129.174 51.462 128.918 51.735 128.727 52.099C128.537 52.4543 128.441 52.892 128.441 53.412C128.441 54.1833 128.636 54.7813 129.026 55.206C129.425 55.622 129.923 55.83 130.521 55.83ZM142.191 49.837V57H140.709V56.155C140.475 56.4497 140.168 56.6837 139.786 56.857C139.414 57.0217 139.015 57.104 138.59 57.104C138.027 57.104 137.52 56.987 137.069 56.753C136.627 56.519 136.276 56.1723 136.016 55.713C135.765 55.2537 135.639 54.699 135.639 54.049V49.837H137.108V53.828C137.108 54.4693 137.269 54.9633 137.589 55.31C137.91 55.648 138.348 55.817 138.902 55.817C139.457 55.817 139.895 55.648 140.215 55.31C140.545 54.9633 140.709 54.4693 140.709 53.828V49.837H142.191ZM145.629 50.877C145.846 50.513 146.132 50.2313 146.487 50.032C146.851 49.824 147.28 49.72 147.774 49.72V51.254H147.397C146.816 51.254 146.374 51.4013 146.071 51.696C145.776 51.9907 145.629 52.502 145.629 53.23V57H144.147V49.837H145.629V50.877ZM153.995 49.161V51.813H157.115V53.022H153.995V55.791H157.505V57H152.513V47.952H157.505V49.161H153.995ZM162.944 49.72C163.508 49.72 164.01 49.837 164.452 50.071C164.903 50.305 165.254 50.6517 165.505 51.111C165.757 51.5703 165.882 52.125 165.882 52.775V57H164.413V52.996C164.413 52.3547 164.253 51.865 163.932 51.527C163.612 51.1803 163.174 51.007 162.619 51.007C162.065 51.007 161.623 51.1803 161.293 51.527C160.973 51.865 160.812 52.3547 160.812 52.996V57H159.33V49.837H160.812V50.656C161.055 50.3613 161.363 50.1317 161.735 49.967C162.117 49.8023 162.52 49.72 162.944 49.72ZM170.659 49.72C171.214 49.72 171.703 49.8327 172.128 50.058C172.561 50.2747 172.899 50.5477 173.142 50.877V49.837H174.637V57.117C174.637 57.7757 174.498 58.3607 174.221 58.872C173.944 59.392 173.541 59.7993 173.012 60.094C172.492 60.3887 171.868 60.536 171.14 60.536C170.169 60.536 169.363 60.3063 168.722 59.847C168.081 59.3963 167.717 58.781 167.63 58.001H169.099C169.212 58.3737 169.45 58.6727 169.814 58.898C170.187 59.132 170.629 59.249 171.14 59.249C171.738 59.249 172.219 59.067 172.583 58.703C172.956 58.339 173.142 57.8103 173.142 57.117V55.921C172.891 56.259 172.548 56.545 172.115 56.779C171.69 57.0043 171.205 57.117 170.659 57.117C170.035 57.117 169.463 56.961 168.943 56.649C168.432 56.3283 168.024 55.8863 167.721 55.323C167.426 54.751 167.279 54.1053 167.279 53.386C167.279 52.6667 167.426 52.0297 167.721 51.475C168.024 50.9203 168.432 50.4913 168.943 50.188C169.463 49.876 170.035 49.72 170.659 49.72ZM173.142 53.412C173.142 52.918 173.038 52.489 172.83 52.125C172.631 51.761 172.366 51.4837 172.037 51.293C171.708 51.1023 171.352 51.007 170.971 51.007C170.59 51.007 170.234 51.1023 169.905 51.293C169.576 51.475 169.307 51.748 169.099 52.112C168.9 52.4673 168.8 52.892 168.8 53.386C168.8 53.88 168.9 54.3133 169.099 54.686C169.307 55.0587 169.576 55.3447 169.905 55.544C170.243 55.7347 170.598 55.83 170.971 55.83C171.352 55.83 171.708 55.7347 172.037 55.544C172.366 55.3533 172.631 55.076 172.83 54.712C173.038 54.3393 173.142 53.906 173.142 53.412ZM178.065 47.38V57H176.583V47.38H178.065ZM180.765 48.888C180.496 48.888 180.271 48.797 180.089 48.615C179.907 48.433 179.816 48.2077 179.816 47.939C179.816 47.6703 179.907 47.445 180.089 47.263C180.271 47.081 180.496 46.99 180.765 46.99C181.025 46.99 181.246 47.081 181.428 47.263C181.61 47.445 181.701 47.6703 181.701 47.939C181.701 48.2077 181.61 48.433 181.428 48.615C181.246 48.797 181.025 48.888 180.765 48.888ZM181.493 49.837V57H180.011V49.837H181.493ZM186.039 57.117C185.476 57.117 184.969 57.0173 184.518 56.818C184.076 56.61 183.725 56.3327 183.465 55.986C183.205 55.6307 183.066 55.2363 183.049 54.803H184.583C184.609 55.1063 184.752 55.362 185.012 55.57C185.281 55.7693 185.614 55.869 186.013 55.869C186.429 55.869 186.75 55.791 186.975 55.635C187.209 55.4703 187.326 55.2623 187.326 55.011C187.326 54.7423 187.196 54.543 186.936 54.413C186.685 54.283 186.282 54.14 185.727 53.984C185.19 53.8367 184.752 53.6937 184.414 53.555C184.076 53.4163 183.781 53.204 183.53 52.918C183.287 52.632 183.166 52.255 183.166 51.787C183.166 51.4057 183.279 51.059 183.504 50.747C183.729 50.4263 184.05 50.175 184.466 49.993C184.891 49.811 185.376 49.72 185.922 49.72C186.737 49.72 187.391 49.928 187.885 50.344C188.388 50.7513 188.656 51.3103 188.691 52.021H187.209C187.183 51.7003 187.053 51.4447 186.819 51.254C186.585 51.0633 186.269 50.968 185.87 50.968C185.48 50.968 185.181 51.0417 184.973 51.189C184.765 51.3363 184.661 51.5313 184.661 51.774C184.661 51.9647 184.73 52.125 184.869 52.255C185.008 52.385 185.177 52.489 185.376 52.567C185.575 52.6363 185.87 52.7273 186.26 52.84C186.78 52.9787 187.205 53.1217 187.534 53.269C187.872 53.4077 188.162 53.6157 188.405 53.893C188.648 54.1703 188.773 54.5387 188.782 54.998C188.782 55.4053 188.669 55.7693 188.444 56.09C188.219 56.4107 187.898 56.662 187.482 56.844C187.075 57.026 186.594 57.117 186.039 57.117ZM194.088 49.72C194.634 49.72 195.12 49.837 195.544 50.071C195.978 50.305 196.316 50.6517 196.558 51.111C196.81 51.5703 196.935 52.125 196.935 52.775V57H195.466V52.996C195.466 52.3547 195.306 51.865 194.985 51.527C194.665 51.1803 194.227 51.007 193.672 51.007C193.118 51.007 192.676 51.1803 192.346 51.527C192.026 51.865 191.865 52.3547 191.865 52.996V57H190.383V47.38H191.865V50.669C192.117 50.3657 192.433 50.1317 192.814 49.967C193.204 49.8023 193.629 49.72 194.088 49.72ZM204.803 57.117C204.239 57.117 203.732 57.0173 203.282 56.818C202.84 56.61 202.489 56.3327 202.229 55.986C201.969 55.6307 201.83 55.2363 201.813 54.803H203.347C203.373 55.1063 203.516 55.362 203.776 55.57C204.044 55.7693 204.378 55.869 204.777 55.869C205.193 55.869 205.513 55.791 205.739 55.635C205.973 55.4703 206.09 55.2623 206.09 55.011C206.09 54.7423 205.96 54.543 205.7 54.413C205.448 54.283 205.045 54.14 204.491 53.984C203.953 53.8367 203.516 53.6937 203.178 53.555C202.84 53.4163 202.545 53.204 202.294 52.918C202.051 52.632 201.93 52.255 201.93 51.787C201.93 51.4057 202.042 51.059 202.268 50.747C202.493 50.4263 202.814 50.175 203.23 49.993C203.654 49.811 204.14 49.72 204.686 49.72C205.5 49.72 206.155 49.928 206.649 50.344C207.151 50.7513 207.42 51.3103 207.455 52.021H205.973C205.947 51.7003 205.817 51.4447 205.583 51.254C205.349 51.0633 205.032 50.968 204.634 50.968C204.244 50.968 203.945 51.0417 203.737 51.189C203.529 51.3363 203.425 51.5313 203.425 51.774C203.425 51.9647 203.494 52.125 203.633 52.255C203.771 52.385 203.94 52.489 204.14 52.567C204.339 52.6363 204.634 52.7273 205.024 52.84C205.544 52.9787 205.968 53.1217 206.298 53.269C206.636 53.4077 206.926 53.6157 207.169 53.893C207.411 54.1703 207.537 54.5387 207.546 54.998C207.546 55.4053 207.433 55.7693 207.208 56.09C206.982 56.4107 206.662 56.662 206.246 56.844C205.838 57.026 205.357 57.117 204.803 57.117ZM212.254 57.117C211.578 57.117 210.967 56.9653 210.421 56.662C209.875 56.35 209.446 55.9167 209.134 55.362C208.822 54.7987 208.666 54.1487 208.666 53.412C208.666 52.684 208.826 52.0383 209.147 51.475C209.468 50.9117 209.905 50.4783 210.46 50.175C211.015 49.8717 211.634 49.72 212.319 49.72C213.004 49.72 213.623 49.8717 214.178 50.175C214.733 50.4783 215.17 50.9117 215.491 51.475C215.812 52.0383 215.972 52.684 215.972 53.412C215.972 54.14 215.807 54.7857 215.478 55.349C215.149 55.9123 214.698 56.35 214.126 56.662C213.563 56.9653 212.939 57.117 212.254 57.117ZM212.254 55.83C212.635 55.83 212.991 55.739 213.32 55.557C213.658 55.375 213.931 55.102 214.139 54.738C214.347 54.374 214.451 53.932 214.451 53.412C214.451 52.892 214.351 52.4543 214.152 52.099C213.953 51.735 213.688 51.462 213.359 51.28C213.03 51.098 212.674 51.007 212.293 51.007C211.912 51.007 211.556 51.098 211.227 51.28C210.906 51.462 210.651 51.735 210.46 52.099C210.269 52.4543 210.174 52.892 210.174 53.412C210.174 54.1833 210.369 54.7813 210.759 55.206C211.158 55.622 211.656 55.83 212.254 55.83ZM223.924 49.837V57H222.442V56.155C222.208 56.4497 221.9 56.6837 221.519 56.857C221.146 57.0217 220.748 57.104 220.323 57.104C219.76 57.104 219.253 56.987 218.802 56.753C218.36 56.519 218.009 56.1723 217.749 55.713C217.498 55.2537 217.372 54.699 217.372 54.049V49.837H218.841V53.828C218.841 54.4693 219.001 54.9633 219.322 55.31C219.643 55.648 220.08 55.817 220.635 55.817C221.19 55.817 221.627 55.648 221.948 55.31C222.277 54.9633 222.442 54.4693 222.442 53.828V49.837H223.924ZM229.493 49.72C230.057 49.72 230.559 49.837 231.001 50.071C231.452 50.305 231.803 50.6517 232.054 51.111C232.306 51.5703 232.431 52.125 232.431 52.775V57H230.962V52.996C230.962 52.3547 230.802 51.865 230.481 51.527C230.161 51.1803 229.723 51.007 229.168 51.007C228.614 51.007 228.172 51.1803 227.842 51.527C227.522 51.865 227.361 52.3547 227.361 52.996V57H225.879V49.837H227.361V50.656C227.604 50.3613 227.912 50.1317 228.284 49.967C228.666 49.8023 229.069 49.72 229.493 49.72ZM233.828 53.386C233.828 52.6667 233.975 52.0297 234.27 51.475C234.573 50.9203 234.98 50.4913 235.492 50.188C236.012 49.876 236.588 49.72 237.221 49.72C237.689 49.72 238.148 49.824 238.599 50.032C239.058 50.2313 239.422 50.5 239.691 50.838V47.38H241.186V57H239.691V55.921C239.448 56.2677 239.11 56.5537 238.677 56.779C238.252 57.0043 237.762 57.117 237.208 57.117C236.584 57.117 236.012 56.961 235.492 56.649C234.98 56.3283 234.573 55.8863 234.27 55.323C233.975 54.751 233.828 54.1053 233.828 53.386ZM239.691 53.412C239.691 52.918 239.587 52.489 239.379 52.125C239.179 51.761 238.915 51.4837 238.586 51.293C238.256 51.1023 237.901 51.007 237.52 51.007C237.138 51.007 236.783 51.1023 236.454 51.293C236.124 51.475 235.856 51.748 235.648 52.112C235.448 52.4673 235.349 52.892 235.349 53.386C235.349 53.88 235.448 54.3133 235.648 54.686C235.856 55.0587 236.124 55.3447 236.454 55.544C236.792 55.7347 237.147 55.83 237.52 55.83C237.901 55.83 238.256 55.7347 238.586 55.544C238.915 55.3533 239.179 55.076 239.379 54.712C239.587 54.3393 239.691 53.906 239.691 53.412ZM247.991 47.38V57H246.509V47.38H247.991ZM250.691 48.888C250.422 48.888 250.197 48.797 250.015 48.615C249.833 48.433 249.742 48.2077 249.742 47.939C249.742 47.6703 249.833 47.445 250.015 47.263C250.197 47.081 250.422 46.99 250.691 46.99C250.951 46.99 251.172 47.081 251.354 47.263C251.536 47.445 251.627 47.6703 251.627 47.939C251.627 48.2077 251.536 48.433 251.354 48.615C251.172 48.797 250.951 48.888 250.691 48.888ZM251.419 49.837V57H249.937V49.837H251.419ZM256.199 53.425L259.501 57H257.499L254.847 53.919V57H253.365V47.38H254.847V52.97L257.447 49.837H259.501L256.199 53.425ZM267.128 53.243C267.128 53.5117 267.111 53.7543 267.076 53.971H261.603C261.646 54.543 261.859 55.0023 262.24 55.349C262.621 55.6957 263.089 55.869 263.644 55.869C264.441 55.869 265.005 55.5353 265.334 54.868H266.933C266.716 55.5267 266.322 56.0683 265.75 56.493C265.187 56.909 264.485 57.117 263.644 57.117C262.959 57.117 262.344 56.9653 261.798 56.662C261.261 56.35 260.836 55.9167 260.524 55.362C260.221 54.7987 260.069 54.1487 260.069 53.412C260.069 52.6753 260.216 52.0297 260.511 51.475C260.814 50.9117 261.235 50.4783 261.772 50.175C262.318 49.8717 262.942 49.72 263.644 49.72C264.32 49.72 264.922 49.8673 265.451 50.162C265.98 50.4567 266.391 50.8727 266.686 51.41C266.981 51.9387 267.128 52.5497 267.128 53.243ZM265.581 52.775C265.572 52.229 265.377 51.7913 264.996 51.462C264.615 51.1327 264.142 50.968 263.579 50.968C263.068 50.968 262.63 51.1327 262.266 51.462C261.902 51.7827 261.685 52.2203 261.616 52.775H265.581ZM278.502 50.565C278.268 50.1143 277.943 49.7763 277.527 49.551C277.111 49.317 276.63 49.2 276.084 49.2C275.486 49.2 274.953 49.3343 274.485 49.603C274.017 49.8717 273.649 50.253 273.38 50.747C273.12 51.241 272.99 51.813 272.99 52.463C272.99 53.113 273.12 53.6893 273.38 54.192C273.649 54.686 274.017 55.0673 274.485 55.336C274.953 55.6047 275.486 55.739 276.084 55.739C276.89 55.739 277.545 55.5137 278.047 55.063C278.55 54.6123 278.858 54.0013 278.97 53.23H275.577V52.047H280.556V53.204C280.461 53.906 280.21 54.5517 279.802 55.141C279.404 55.7303 278.879 56.2027 278.229 56.558C277.588 56.9047 276.873 57.078 276.084 57.078C275.235 57.078 274.459 56.883 273.757 56.493C273.055 56.0943 272.496 55.544 272.08 54.842C271.673 54.14 271.469 53.347 271.469 52.463C271.469 51.579 271.673 50.786 272.08 50.084C272.496 49.382 273.055 48.836 273.757 48.446C274.468 48.0473 275.244 47.848 276.084 47.848C277.046 47.848 277.9 48.0863 278.645 48.563C279.399 49.031 279.945 49.6983 280.283 50.565H278.502ZM288.583 53.243C288.583 53.5117 288.566 53.7543 288.531 53.971H283.058C283.101 54.543 283.314 55.0023 283.695 55.349C284.076 55.6957 284.544 55.869 285.099 55.869C285.896 55.869 286.46 55.5353 286.789 54.868H288.388C288.171 55.5267 287.777 56.0683 287.205 56.493C286.642 56.909 285.94 57.117 285.099 57.117C284.414 57.117 283.799 56.9653 283.253 56.662C282.716 56.35 282.291 55.9167 281.979 55.362C281.676 54.7987 281.524 54.1487 281.524 53.412C281.524 52.6753 281.671 52.0297 281.966 51.475C282.269 50.9117 282.69 50.4783 283.227 50.175C283.773 49.8717 284.397 49.72 285.099 49.72C285.775 49.72 286.377 49.8673 286.906 50.162C287.435 50.4567 287.846 50.8727 288.141 51.41C288.436 51.9387 288.583 52.5497 288.583 53.243ZM287.036 52.775C287.027 52.229 286.832 51.7913 286.451 51.462C286.07 51.1327 285.597 50.968 285.034 50.968C284.523 50.968 284.085 51.1327 283.721 51.462C283.357 51.7827 283.14 52.2203 283.071 52.775H287.036ZM291.523 50.877C291.74 50.513 292.026 50.2313 292.381 50.032C292.745 49.824 293.174 49.72 293.668 49.72V51.254H293.291C292.711 51.254 292.269 51.4013 291.965 51.696C291.671 51.9907 291.523 52.502 291.523 53.23V57H290.041V49.837H291.523V50.877ZM303.702 49.72C304.265 49.72 304.768 49.837 305.21 50.071C305.66 50.305 306.011 50.6517 306.263 51.111C306.523 51.5703 306.653 52.125 306.653 52.775V57H305.184V52.996C305.184 52.3547 305.023 51.865 304.703 51.527C304.382 51.1803 303.944 51.007 303.39 51.007C302.835 51.007 302.393 51.1803 302.064 51.527C301.743 51.865 301.583 52.3547 301.583 52.996V57H300.114V52.996C300.114 52.3547 299.953 51.865 299.633 51.527C299.312 51.1803 298.874 51.007 298.32 51.007C297.765 51.007 297.323 51.1803 296.994 51.527C296.673 51.865 296.513 52.3547 296.513 52.996V57H295.031V49.837H296.513V50.656C296.755 50.3613 297.063 50.1317 297.436 49.967C297.808 49.8023 298.207 49.72 298.632 49.72C299.204 49.72 299.715 49.8413 300.166 50.084C300.616 50.3267 300.963 50.6777 301.206 51.137C301.422 50.7037 301.76 50.3613 302.22 50.11C302.679 49.85 303.173 49.72 303.702 49.72ZM308.044 53.386C308.044 52.6667 308.192 52.0297 308.486 51.475C308.79 50.9203 309.197 50.4913 309.708 50.188C310.228 49.876 310.8 49.72 311.424 49.72C311.988 49.72 312.477 49.8327 312.893 50.058C313.318 50.2747 313.656 50.5477 313.907 50.877V49.837H315.402V57H313.907V55.934C313.656 56.272 313.314 56.5537 312.88 56.779C312.447 57.0043 311.953 57.117 311.398 57.117C310.783 57.117 310.22 56.961 309.708 56.649C309.197 56.3283 308.79 55.8863 308.486 55.323C308.192 54.751 308.044 54.1053 308.044 53.386ZM313.907 53.412C313.907 52.918 313.803 52.489 313.595 52.125C313.396 51.761 313.132 51.4837 312.802 51.293C312.473 51.1023 312.118 51.007 311.736 51.007C311.355 51.007 311 51.1023 310.67 51.293C310.341 51.475 310.072 51.748 309.864 52.112C309.665 52.4673 309.565 52.892 309.565 53.386C309.565 53.88 309.665 54.3133 309.864 54.686C310.072 55.0587 310.341 55.3447 310.67 55.544C311.008 55.7347 311.364 55.83 311.736 55.83C312.118 55.83 312.473 55.7347 312.802 55.544C313.132 55.3533 313.396 55.076 313.595 54.712C313.803 54.3393 313.907 53.906 313.907 53.412ZM320.963 49.72C321.526 49.72 322.029 49.837 322.471 50.071C322.922 50.305 323.273 50.6517 323.524 51.111C323.775 51.5703 323.901 52.125 323.901 52.775V57H322.432V52.996C322.432 52.3547 322.272 51.865 321.951 51.527C321.63 51.1803 321.193 51.007 320.638 51.007C320.083 51.007 319.641 51.1803 319.312 51.527C318.991 51.865 318.831 52.3547 318.831 52.996V57H317.349V49.837H318.831V50.656C319.074 50.3613 319.381 50.1317 319.754 49.967C320.135 49.8023 320.538 49.72 320.963 49.72Z" fill="#FFE62E"/>
<path d="M86.825 18.55C88.6583 18.55 90.2667 18.9083 91.65 19.625C93.05 20.3417 94.125 21.3667 94.875 22.7C95.6417 24.0167 96.025 25.55 96.025 27.3C96.025 29.05 95.6417 30.5833 94.875 31.9C94.125 33.2 93.05 34.2083 91.65 34.925C90.2667 35.6417 88.6583 36 86.825 36H80.725V18.55H86.825ZM86.7 33.025C88.5333 33.025 89.95 32.525 90.95 31.525C91.95 30.525 92.45 29.1167 92.45 27.3C92.45 25.4833 91.95 24.0667 90.95 23.05C89.95 22.0167 88.5333 21.5 86.7 21.5H84.225V33.025H86.7ZM111.52 28.775C111.52 29.275 111.487 29.725 111.42 30.125H101.295C101.378 31.125 101.728 31.9083 102.345 32.475C102.962 33.0417 103.72 33.325 104.62 33.325C105.92 33.325 106.845 32.7667 107.395 31.65H111.17C110.77 32.9833 110.003 34.0833 108.87 34.95C107.737 35.8 106.345 36.225 104.695 36.225C103.362 36.225 102.162 35.9333 101.095 35.35C100.045 34.75 99.2199 33.9083 98.6199 32.825C98.0366 31.7417 97.7449 30.4917 97.7449 29.075C97.7449 27.6417 98.0366 26.3833 98.6199 25.3C99.2033 24.2167 100.02 23.3833 101.07 22.8C102.12 22.2167 103.328 21.925 104.695 21.925C106.012 21.925 107.187 22.2083 108.22 22.775C109.27 23.3417 110.078 24.15 110.645 25.2C111.228 26.2333 111.52 27.425 111.52 28.775ZM107.895 27.775C107.878 26.875 107.553 26.1583 106.92 25.625C106.287 25.075 105.512 24.8 104.595 24.8C103.728 24.8 102.995 25.0667 102.395 25.6C101.812 26.1167 101.453 26.8417 101.32 27.775H107.895ZM127.15 22.15V36H123.625V34.25C123.175 34.85 122.583 35.325 121.85 35.675C121.133 36.0083 120.35 36.175 119.5 36.175C118.416 36.175 117.458 35.95 116.625 35.5C115.791 35.0333 115.133 34.3583 114.65 33.475C114.183 32.575 113.95 31.5083 113.95 30.275V22.15H117.45V29.775C117.45 30.875 117.725 31.725 118.275 32.325C118.825 32.9083 119.575 33.2 120.525 33.2C121.491 33.2 122.25 32.9083 122.8 32.325C123.35 31.725 123.625 30.875 123.625 29.775V22.15H127.15ZM134.678 25.025V31.725C134.678 32.1917 134.786 32.5333 135.003 32.75C135.236 32.95 135.62 33.05 136.153 33.05H137.778V36H135.578C132.628 36 131.153 34.5667 131.153 31.7V25.025H129.503V22.15H131.153V18.725H134.678V22.15H137.778V25.025H134.678ZM145.595 36.225C144.462 36.225 143.445 36.025 142.545 35.625C141.645 35.2083 140.929 34.65 140.395 33.95C139.879 33.25 139.595 32.475 139.545 31.625H143.07C143.137 32.1583 143.395 32.6 143.845 32.95C144.312 33.3 144.887 33.475 145.57 33.475C146.237 33.475 146.754 33.3417 147.12 33.075C147.504 32.8083 147.695 32.4667 147.695 32.05C147.695 31.6 147.462 31.2667 146.995 31.05C146.545 30.8167 145.82 30.5667 144.82 30.3C143.787 30.05 142.937 29.7917 142.27 29.525C141.62 29.2583 141.054 28.85 140.57 28.3C140.104 27.75 139.87 27.0083 139.87 26.075C139.87 25.3083 140.087 24.6083 140.52 23.975C140.97 23.3417 141.604 22.8417 142.42 22.475C143.254 22.1083 144.229 21.925 145.345 21.925C146.995 21.925 148.312 22.3417 149.295 23.175C150.279 23.9917 150.82 25.1 150.92 26.5H147.57C147.52 25.95 147.287 25.5167 146.87 25.2C146.47 24.8667 145.929 24.7 145.245 24.7C144.612 24.7 144.12 24.8167 143.77 25.05C143.437 25.2833 143.27 25.6083 143.27 26.025C143.27 26.4917 143.504 26.85 143.97 27.1C144.437 27.3333 145.162 27.575 146.145 27.825C147.145 28.075 147.97 28.3333 148.62 28.6C149.27 28.8667 149.829 29.2833 150.295 29.85C150.779 30.4 151.029 31.1333 151.045 32.05C151.045 32.85 150.82 33.5667 150.37 34.2C149.937 34.8333 149.304 35.3333 148.47 35.7C147.654 36.05 146.695 36.225 145.595 36.225ZM153.018 29.075C153.018 27.6417 153.31 26.3917 153.893 25.325C154.477 24.2417 155.285 23.4083 156.318 22.825C157.352 22.225 158.535 21.925 159.868 21.925C161.585 21.925 163.002 22.3583 164.118 23.225C165.252 24.075 166.01 25.275 166.393 26.825H162.618C162.418 26.225 162.077 25.7583 161.593 25.425C161.127 25.075 160.543 24.9 159.843 24.9C158.843 24.9 158.052 25.2667 157.468 26C156.885 26.7167 156.593 27.7417 156.593 29.075C156.593 30.3917 156.885 31.4167 157.468 32.15C158.052 32.8667 158.843 33.225 159.843 33.225C161.26 33.225 162.185 32.5917 162.618 31.325H166.393C166.01 32.825 165.252 34.0167 164.118 34.9C162.985 35.7833 161.568 36.225 159.868 36.225C158.535 36.225 157.352 35.9333 156.318 35.35C155.285 34.75 154.477 33.9167 153.893 32.85C153.31 31.7667 153.018 30.5083 153.018 29.075ZM176.757 21.95C177.807 21.95 178.741 22.1833 179.557 22.65C180.374 23.1 181.007 23.775 181.457 24.675C181.924 25.5583 182.157 26.625 182.157 27.875V36H178.657V28.35C178.657 27.25 178.382 26.4083 177.832 25.825C177.282 25.225 176.532 24.925 175.582 24.925C174.616 24.925 173.849 25.225 173.282 25.825C172.732 26.4083 172.457 27.25 172.457 28.35V36H168.957V17.5H172.457V23.875C172.907 23.275 173.507 22.8083 174.257 22.475C175.007 22.125 175.841 21.95 176.757 21.95ZM198.361 28.775C198.361 29.275 198.327 29.725 198.261 30.125H188.136C188.219 31.125 188.569 31.9083 189.186 32.475C189.802 33.0417 190.561 33.325 191.461 33.325C192.761 33.325 193.686 32.7667 194.236 31.65H198.011C197.611 32.9833 196.844 34.0833 195.711 34.95C194.577 35.8 193.186 36.225 191.536 36.225C190.202 36.225 189.002 35.9333 187.936 35.35C186.886 34.75 186.061 33.9083 185.461 32.825C184.877 31.7417 184.586 30.4917 184.586 29.075C184.586 27.6417 184.877 26.3833 185.461 25.3C186.044 24.2167 186.861 23.3833 187.911 22.8C188.961 22.2167 190.169 21.925 191.536 21.925C192.852 21.925 194.027 22.2083 195.061 22.775C196.111 23.3417 196.919 24.15 197.486 25.2C198.069 26.2333 198.361 27.425 198.361 28.775ZM194.736 27.775C194.719 26.875 194.394 26.1583 193.761 25.625C193.127 25.075 192.352 24.8 191.436 24.8C190.569 24.8 189.836 25.0667 189.236 25.6C188.652 26.1167 188.294 26.8417 188.161 27.775H194.736Z" fill="#101010"/>
<path d="M210.372 33.225H216.122V36H206.872V18.55H210.372V33.225ZM220.122 20.5C219.505 20.5 218.989 20.3083 218.572 19.925C218.172 19.525 217.972 19.0333 217.972 18.45C217.972 17.8667 218.172 17.3833 218.572 17C218.989 16.6 219.505 16.4 220.122 16.4C220.739 16.4 221.247 16.6 221.647 17C222.064 17.3833 222.272 17.8667 222.272 18.45C222.272 19.0333 222.064 19.525 221.647 19.925C221.247 20.3083 220.739 20.5 220.122 20.5ZM221.847 22.15V36H218.347V22.15H221.847ZM238.18 28.775C238.18 29.275 238.147 29.725 238.08 30.125H227.955C228.038 31.125 228.388 31.9083 229.005 32.475C229.622 33.0417 230.38 33.325 231.28 33.325C232.58 33.325 233.505 32.7667 234.055 31.65H237.83C237.43 32.9833 236.663 34.0833 235.53 34.95C234.397 35.8 233.005 36.225 231.355 36.225C230.022 36.225 228.822 35.9333 227.755 35.35C226.705 34.75 225.88 33.9083 225.28 32.825C224.697 31.7417 224.405 30.4917 224.405 29.075C224.405 27.6417 224.697 26.3833 225.28 25.3C225.863 24.2167 226.68 23.3833 227.73 22.8C228.78 22.2167 229.988 21.925 231.355 21.925C232.672 21.925 233.847 22.2083 234.88 22.775C235.93 23.3417 236.738 24.15 237.305 25.2C237.888 26.2333 238.18 27.425 238.18 28.775ZM234.555 27.775C234.538 26.875 234.213 26.1583 233.58 25.625C232.947 25.075 232.172 24.8 231.255 24.8C230.388 24.8 229.655 25.0667 229.055 25.6C228.472 26.1167 228.113 26.8417 227.98 27.775H234.555ZM244.235 24.175C244.685 23.5083 245.301 22.9667 246.085 22.55C246.885 22.1333 247.793 21.925 248.81 21.925C249.993 21.925 251.06 22.2167 252.01 22.8C252.976 23.3833 253.735 24.2167 254.285 25.3C254.851 26.3667 255.135 27.6083 255.135 29.025C255.135 30.4417 254.851 31.7 254.285 32.8C253.735 33.8833 252.976 34.725 252.01 35.325C251.06 35.925 249.993 36.225 248.81 36.225C247.776 36.225 246.868 36.025 246.085 35.625C245.318 35.2083 244.701 34.675 244.235 34.025V36H240.735V17.5H244.235V24.175ZM251.56 29.025C251.56 28.1917 251.385 27.475 251.035 26.875C250.701 26.2583 250.251 25.7917 249.685 25.475C249.135 25.1583 248.535 25 247.885 25C247.251 25 246.651 25.1667 246.085 25.5C245.535 25.8167 245.085 26.2833 244.735 26.9C244.401 27.5167 244.235 28.2417 244.235 29.075C244.235 29.9083 244.401 30.6333 244.735 31.25C245.085 31.8667 245.535 32.3417 246.085 32.675C246.651 32.9917 247.251 33.15 247.885 33.15C248.535 33.15 249.135 32.9833 249.685 32.65C250.251 32.3167 250.701 31.8417 251.035 31.225C251.385 30.6083 251.56 29.875 251.56 29.025ZM270.553 28.775C270.553 29.275 270.52 29.725 270.453 30.125H260.328C260.411 31.125 260.761 31.9083 261.378 32.475C261.995 33.0417 262.753 33.325 263.653 33.325C264.953 33.325 265.878 32.7667 266.428 31.65H270.203C269.803 32.9833 269.036 34.0833 267.903 34.95C266.77 35.8 265.378 36.225 263.728 36.225C262.395 36.225 261.195 35.9333 260.128 35.35C259.078 34.75 258.253 33.9083 257.653 32.825C257.07 31.7417 256.778 30.4917 256.778 29.075C256.778 27.6417 257.07 26.3833 257.653 25.3C258.236 24.2167 259.053 23.3833 260.103 22.8C261.153 22.2167 262.361 21.925 263.728 21.925C265.045 21.925 266.22 22.2083 267.253 22.775C268.303 23.3417 269.111 24.15 269.678 25.2C270.261 26.2333 270.553 27.425 270.553 28.775ZM266.928 27.775C266.911 26.875 266.586 26.1583 265.953 25.625C265.32 25.075 264.545 24.8 263.628 24.8C262.761 24.8 262.028 25.0667 261.428 25.6C260.845 26.1167 260.486 26.8417 260.353 27.775H266.928Z" fill="#E5E5E5"/>
</svg>
