<svg width="128" height="128" viewBox="0 0 128 128" fill="none" xmlns="http://www.w3.org/2000/svg">
<g opacity="0.44" clip-path="url(#clip0)">
<path d="M100.96 10.37C99.4 10.37 97.88 10.98 96.76 12.11C87.2 21.67 78.82 23.48 66.69 23.48C63.01 23.48 58.97 23.3 54.69 23.11C51.32 22.96 47.84 22.8 44.08 22.71C43.42 22.69 42.78 22.69 42.14 22.69C11.46 22.69 1.65002 41.25 1.25002 42.04C0.732504 43.0546 0.517306 44.1966 0.630018 45.33L7.35002 112.28C7.45954 113.37 7.86752 114.409 8.5291 115.282C9.19069 116.155 10.0803 116.829 11.1 117.23C11.8 117.5 12.53 117.63 13.26 117.63C14.69 117.63 16.1 117.12 17.21 116.13C17.31 116.04 29.63 105.5 49.33 105.5C51.85 105.5 54.42 105.67 56.96 106.01C66.22 107.24 73 107.79 78.91 107.79C97.84 107.79 111.84 101.69 125.73 87.41C126.473 86.6476 126.996 85.6993 127.246 84.6647C127.496 83.6301 127.463 82.5473 127.15 81.53L106.64 14.59C106.03 12.59 104.42 11.06 102.39 10.56C101.92 10.43 101.44 10.37 100.96 10.37V10.37Z" fill="#2F2F2F"/>
<path d="M60.11 110.71C86.72 112.78 104.67 117.64 129.59 89.02L120.23 51.34C97.91 76.41 83.88 76.46 53.61 73.46C28 70.93 10.24 87.41 3.76001 93.19L7.99001 130.36C18.5 121.62 34.31 108.7 60.11 110.71V110.71Z" fill="#FFE000"/>
<path d="M54.6 77.18C80.45 79.25 97.89 84.11 122.09 55.48L114.16 26.24C92.47 51.32 78.85 51.37 49.44 48.38C24.56 45.84 7.30001 62.33 1.01001 68.11L3.97001 96.83C14.17 88.1 29.54 75.17 54.6 77.18Z" fill="#F64E3D"/>
</g>
<defs>
<clipPath id="clip0">
<rect width="128" height="128" fill="white"/>
</clipPath>
</defs>
</svg>
